<?xml version="1.0" encoding="utf-8"?>
<!-- Generator: Adobe Illustrator 16.0.0, SVG Export Plug-In . SVG Version: 6.00 Build 0)  -->
<!DOCTYPE svg PUBLIC "-//W3C//DTD SVG 1.1//EN" "http://www.w3.org/Graphics/SVG/1.1/DTD/svg11.dtd">
<svg version="1.1" id="Layer_1" xmlns="http://www.w3.org/2000/svg" xmlns:xlink="http://www.w3.org/1999/xlink" x="0px" y="0px"
	 width="100.5px" height="59.5px" viewBox="0 0 100.5 59.5" enable-background="new 0 0 100.5 59.5" xml:space="preserve">
<g id="eye-open_1_">
	<path fill="#FFFFFF" d="M1.25,24.622c0-0.5,1.283-2.083,3.85-4.75c3.1-3.2,6.6-6.2,10.5-9c11.633-8.5,23.184-12.75,34.65-12.75
		c11.433,0,22.983,4.25,34.649,12.75c3.865,2.8,7.365,5.8,10.5,9c2.564,2.667,3.851,4.25,3.851,4.75c0,0.533-1.283,2.267-3.851,5.2
		c-3.135,3.566-6.635,6.916-10.5,10.049c-11.699,9.5-23.25,14.25-34.649,14.25c-11.434,0-22.983-4.75-34.65-14.25
		c-3.867-3.133-7.367-6.482-10.5-10.049C2.533,26.889,1.25,25.155,1.25,24.622z"/>
	<circle fill="#007EFF" cx="51.39" cy="20.033" r="25.282"/>
	<path d="M42.6,11.472c2.267-2.233,4.983-3.35,8.15-3.35c3.166,0,5.883,1.117,8.149,3.35c2.23,2.267,3.351,4.983,3.351,8.15
		s-1.117,5.884-3.351,8.149c-2.27,2.231-4.983,3.35-8.149,3.35c-3.167,0-5.883-1.113-8.15-3.35c-2.233-2.267-3.35-4.982-3.35-8.149
		S40.367,13.739,42.6,11.472z"/>
</g>
<g id="eye-lid">
	<g id="_x31_" display="none">
		<path display="inline" fill="#007EFF" d="M17.517,7.234c10.733-6.867,21.467-10.3,32.2-10.3c5.767,0,11.851,1,18.25,3
			c6.268,1.934,11.918,4.517,16.951,7.75c5.23,3.367,9.033,6.95,11.398,10.75c1.396,2.232,2.268,3.899,2.602,5
			c0.467,1.467,0.416,3.05-0.15,4.75c-5.1-6.601-11.666-12.384-19.699-17.351c-9.834-6.1-19.467-9.15-28.899-9.15
			c-8.799,0-18.283,2.95-28.449,8.85c-8.9,5.166-16,11.033-21.3,17.6C1.184,21,6.883,14.035,17.517,7.234z"/>
	</g>
	<g id="_x32_" display="none">
		<path display="inline" fill="#007EFF" d="M23.368,14.259c-10.267,3.8-17.8,8.283-22.6,13.45C2,20.775,7.8,14.059,18.167,7.559
			c10.633-6.667,21.25-10,31.85-10c5.767,0,11.851,1,18.249,3c6.299,1.934,11.949,4.517,16.949,7.75
			c5.234,3.367,9.033,6.95,11.4,10.75c1.434,2.3,2.301,3.9,2.6,4.8c0.434,1.334,0.334,2.734-0.299,4.2
			c-6.768-5.466-14.65-10.033-23.65-13.7c-8.133-4.2-16.551-6.3-25.249-6.3C41.618,8.059,32.733,10.125,23.368,14.259z"/>
	</g>
	<g id="_x33_" display="none">
		<path display="inline" fill="#007EFF" d="M24.753,18.642c-11.7,2.4-19.683,5.483-23.95,9.25c1.7-6.7,7.6-13.167,17.7-19.4
			c10.5-6.434,21.017-9.65,31.55-9.65c5.766,0,11.85,1,18.25,3c6.334,1.966,11.98,4.55,16.947,7.75
			c5.23,3.333,9.033,6.917,11.398,10.75c1.469,2.333,2.316,3.884,2.553,4.649c0.436,1.2,0.279,2.384-0.451,3.551
			c-8.398-4.334-17.602-7.65-27.602-9.95c-6.434-2.333-13.615-3.5-21.548-3.5C41.604,15.092,33.32,16.274,24.753,18.642z"/>
	</g>
	<g id="_x34_" display="none">
		<path display="inline" fill="#007EFF" d="M48.851,21.992c-7.601,0-15.284,0.301-23.051,0.9c-13.066,1.033-21.483,2.733-25.25,5.1
			c2.167-6.5,8.167-12.716,18-18.649c10.4-6.233,20.8-9.35,31.201-9.35c5.766,0,11.848,1,18.249,3
			c6.367,1.967,12.018,4.55,16.951,7.75c5.232,3.333,9.033,6.917,11.398,10.75c1.5,2.4,2.352,3.884,2.551,4.45
			c0.398,1.067,0.199,2.067-0.602,3c-10.064-3.2-20.584-5.3-31.551-6.3C62.017,22.208,56.05,21.992,48.851,21.992z"/>
	</g>
	<g id="_x35_" display="none">
		<path display="inline" fill="#007EFF" d="M27.25,28.492c-12.067-0.301-20.867-0.5-26.4-0.601c2.167-6.5,8.167-12.716,18-18.65
			c10.4-6.233,20.8-9.35,31.2-9.35c5.768,0,11.85,1,18.25,3c6.367,1.967,12.018,4.55,16.951,7.75
			c5.23,3.333,9.033,6.917,11.396,10.75c1.5,2.4,2.354,3.884,2.553,4.45c0.398,1.066,0.197,2.066-0.602,3
			c-10.469-0.267-21.166-0.316-32.102-0.15c-5.467,0.234-11.418,0.353-17.851,0.353C42.25,29.043,35.117,28.857,27.25,28.492z"/>
	</g>
	<g id="_x36_" display="none">
		<path display="inline" fill="#007EFF" d="M28.45,33.707c-11.133-1.633-20.333-3.717-27.6-6.25c2.167-6.5,8.167-12.717,18-18.65
			c10.4-6.233,20.8-9.35,31.2-9.35c5.766,0,11.85,1,18.25,3c6.365,1.967,12.016,4.55,16.949,7.75
			c5.232,3.333,9.033,6.917,11.398,10.75c1.5,2.4,2.352,3.883,2.553,4.45c0.398,1.066,0.197,2.066-0.602,3
			c-10.898,2.699-21.803,4.699-32.701,6c-6.197,0.934-12.115,1.397-17.75,1.397C42.95,35.808,36.383,35.107,28.45,33.707z"/>
	</g>
	<g id="_x37_" display="none">
		<path display="inline" fill="#007EFF" d="M47.351,43.301c-4,0-10.017-1.184-18.05-3.551C19.167,36.783,9.584,32.801,0.55,27.801
			c2.167-6.5,8.167-12.717,18-18.65c10.4-6.233,20.8-9.35,31.2-9.35c5.766,0,11.85,1,18.25,3c6.365,1.966,12.016,4.55,16.949,7.75
			c5.232,3.333,9.033,6.917,11.398,10.75c1.5,2.399,2.352,3.884,2.551,4.45c0.398,1.066,0.199,2.066-0.602,3
			c-11.301,5.633-22.383,9.684-33.25,12.149C58.116,42.5,52.216,43.301,47.351,43.301z"/>
	</g>
	<g id="_x38_" display="none">
		<path display="inline" fill="#007EFF" d="M27.85,43.385c-9.9-3.699-19-8.865-27.3-15.5c2.167-6.5,8.167-12.717,18-18.65
			c10.4-6.233,20.8-9.35,31.199-9.35c5.768,0,11.852,1,18.25,3c6.367,1.966,12.018,4.55,16.951,7.75
			c5.23,3.333,9.031,6.917,11.398,10.75c1.5,2.4,2.352,3.884,2.549,4.45c0.398,1.066,0.201,2.066-0.602,3
			C87.265,36.701,76.63,42.136,66.397,45.136c-6.467,1.897-12.666,2.85-18.601,2.85C42.566,47.983,35.917,46.451,27.85,43.385z"/>
	</g>
	<g id="_x39_" display="none">
		<path display="inline" fill="#007EFF" d="M26.517,46.844c-9.633-4.434-18.267-10.75-25.9-18.951c2.167-6.5,8.167-12.717,18-18.65
			c10.4-6.233,20.8-9.35,31.2-9.35c5.767,0,11.851,1,18.249,3c6.367,1.967,12.02,4.55,16.949,7.75
			c5.234,3.333,9.033,6.917,11.4,10.75c1.5,2.4,2.35,3.883,2.551,4.45c0.398,1.066,0.199,2.066-0.602,3
			C87.599,38.877,77.415,45.66,67.815,49.192c-6,2.199-12.5,3.3-19.5,3.3C41.85,52.492,34.583,50.608,26.517,46.844z"/>
	</g>
	<g id="_x31_0" display="none">
		<path display="inline" fill="#007EFF" d="M84.95,10.921c5.232,3.333,9.031,6.917,11.398,10.75c1.5,2.4,2.352,3.883,2.551,4.45
			c0.398,1.066,0.199,2.066-0.602,3c-10.5,12.269-20.232,20.435-29.199,24.5c-5.533,2.5-12.334,3.75-20.399,3.75
			c-7.7,0-15.6-2.231-23.7-6.701c-9.4-5.166-17.55-12.666-24.45-22.5c2.167-6.5,8.167-12.717,18-18.65
			c10.4-6.233,20.8-9.35,31.2-9.35c5.767,0,11.851,1,18.25,3C74.366,5.139,80.015,7.722,84.95,10.921z"/>
	</g>
</g>
</svg>
