<?xml version="1.0" encoding="utf-8"?>
<!-- Generator: Adobe Illustrator 16.0.0, SVG Export Plug-In . SVG Version: 6.00 Build 0)  -->
<!DOCTYPE svg PUBLIC "-//W3C//DTD SVG 1.1//EN" "http://www.w3.org/Graphics/SVG/1.1/DTD/svg11.dtd">
<svg version="1.1" xmlns="http://www.w3.org/2000/svg" xmlns:xlink="http://www.w3.org/1999/xlink" x="0px" y="0px" width="100.5px"
	 height="59.5px" viewBox="0 0 100.5 59.5" enable-background="new 0 0 100.5 59.5" xml:space="preserve">
<g id="eye-open">
	<path fill="#FFFFFF" d="M0.95,28.872c0-0.5,1.283-2.083,3.85-4.75c3.1-3.2,6.6-6.2,10.5-9c11.633-8.5,23.184-12.75,34.65-12.75
		c11.433,0,22.983,4.25,34.649,12.75c3.866,2.8,7.366,5.8,10.5,9c2.565,2.667,3.851,4.25,3.851,4.75c0,0.533-1.283,2.267-3.851,5.2
		c-3.134,3.566-6.634,6.916-10.5,10.049c-11.699,9.5-23.25,14.25-34.649,14.25c-11.434,0-22.983-4.75-34.65-14.25
		c-3.867-3.133-7.367-6.482-10.5-10.049C2.233,31.139,0.95,29.405,0.95,28.872z"/>
	<circle fill="#007EFF" cx="51.09" cy="24.283" r="25.282"/>
	<path d="M42.3,15.722c2.267-2.233,4.983-3.35,8.15-3.35c3.166,0,5.883,1.117,8.149,3.35c2.231,2.267,3.351,4.983,3.351,8.15
		s-1.117,5.884-3.351,8.149c-2.269,2.232-4.983,3.35-8.149,3.35c-3.167,0-5.883-1.113-8.15-3.35c-2.233-2.266-3.35-4.982-3.35-8.149
		S40.067,17.989,42.3,15.722z"/>
</g>
<g id="eye-lid">
	<g id="_x31_" display="none">
		<path display="inline" fill="#007EFF" d="M17.642,8.676c10.733-6.867,21.467-10.3,32.2-10.3c5.768,0,11.852,1,18.249,3
			c6.269,1.934,11.918,4.517,16.951,7.75c5.231,3.367,9.033,6.95,11.399,10.75c1.397,2.232,2.267,3.899,2.601,5
			c0.467,1.467,0.416,3.05-0.149,4.75c-5.101-6.601-11.666-12.384-19.699-17.351c-9.834-6.1-19.467-9.15-28.9-9.15
			c-8.799,0-18.283,2.95-28.449,8.85c-8.9,5.166-16,11.033-21.3,17.6C1.309,22.442,7.009,15.476,17.642,8.676z"/>
	</g>
	<g id="_x32_" display="none">
		<path display="inline" fill="#007EFF" d="M23.493,15.7c-10.267,3.8-17.8,8.283-22.6,13.45C2.126,22.217,7.926,15.5,18.293,9
			c10.633-6.667,21.25-10,31.85-10c5.766,0,11.85,1,18.25,3c6.299,1.934,11.949,4.517,16.949,7.75
			c5.234,3.367,9.033,6.95,11.4,10.75c1.434,2.3,2.301,3.9,2.6,4.8c0.434,1.334,0.334,2.734-0.299,4.2
			c-6.768-5.466-14.65-10.033-23.65-13.7c-8.133-4.2-16.551-6.3-25.25-6.3C41.743,9.5,32.859,11.567,23.493,15.7z"/>
	</g>
	<g id="_x33_" display="none">
		<path display="inline" fill="#007EFF" d="M24.879,20.083c-11.7,2.4-19.683,5.483-23.95,9.25c1.7-6.7,7.6-13.167,17.7-19.4
			c10.5-6.434,21.017-9.65,31.55-9.65c5.766,0,11.85,1,18.25,3c6.334,1.966,11.981,4.55,16.948,7.75
			c5.231,3.333,9.033,6.917,11.399,10.75c1.467,2.333,2.316,3.884,2.551,4.649c0.436,1.2,0.281,2.384-0.45,3.551
			c-8.399-4.334-17.601-7.65-27.601-9.95c-6.434-2.333-13.616-3.5-21.549-3.5C41.729,16.533,33.446,17.716,24.879,20.083z"/>
	</g>
	<g id="_x34_" display="none">
		<path display="inline" fill="#007EFF" d="M48.976,23.433c-7.601,0-15.284,0.301-23.051,0.9c-13.066,1.033-21.483,2.733-25.25,5.1
			c2.167-6.5,8.167-12.716,18-18.649c10.4-6.233,20.8-9.35,31.201-9.35c5.767,0,11.849,1,18.249,3
			c6.367,1.967,12.018,4.55,16.951,7.75c5.232,3.333,9.033,6.917,11.398,10.75c1.5,2.4,2.352,3.884,2.551,4.45
			c0.398,1.067,0.199,2.067-0.602,3c-10.064-3.2-20.584-5.3-31.551-6.3C62.143,23.65,56.175,23.433,48.976,23.433z"/>
	</g>
	<g id="_x35_" display="none">
		<path display="inline" fill="#007EFF" d="M27.375,29.933c-12.067-0.301-20.867-0.5-26.4-0.601c2.167-6.5,8.167-12.716,18-18.65
			c10.4-6.233,20.8-9.35,31.2-9.35c5.769,0,11.851,1,18.25,3c6.367,1.967,12.019,4.55,16.951,7.75
			c5.231,3.333,9.033,6.917,11.397,10.75c1.5,2.4,2.353,3.884,2.552,4.45c0.399,1.066,0.198,2.066-0.601,3
			c-10.468-0.267-21.166-0.316-32.101-0.15c-5.467,0.234-11.418,0.353-17.851,0.353C42.375,30.484,35.242,30.299,27.375,29.933z"/>
	</g>
	<g id="_x36_" display="none">
		<path display="inline" fill="#007EFF" d="M28.575,35.148c-11.133-1.633-20.333-3.717-27.6-6.25c2.167-6.5,8.167-12.717,18-18.65
			c10.4-6.233,20.8-9.35,31.2-9.35c5.767,0,11.851,1,18.25,3c6.366,1.967,12.017,4.55,16.95,7.75
			c5.232,3.333,9.033,6.917,11.398,10.75c1.5,2.4,2.352,3.883,2.552,4.45c0.399,1.066,0.198,2.066-0.601,3
			c-10.899,2.699-21.802,4.699-32.701,6c-6.198,0.933-12.115,1.397-17.75,1.397C43.075,37.249,36.509,36.549,28.575,35.148z"/>
	</g>
	<g id="_x37_" display="none">
		<path display="inline" fill="#007EFF" d="M47.476,44.742c-4,0-10.017-1.184-18.05-3.551C19.293,38.225,9.71,34.242,0.676,29.242
			c2.167-6.5,8.167-12.717,18-18.65c10.4-6.233,20.8-9.35,31.2-9.35c5.767,0,11.851,1,18.25,3c6.366,1.966,12.017,4.55,16.95,7.75
			c5.232,3.333,9.033,6.917,11.398,10.75c1.5,2.399,2.352,3.884,2.551,4.45c0.398,1.066,0.199,2.066-0.602,3
			c-11.3,5.633-22.383,9.684-33.25,12.149C58.242,43.941,52.342,44.742,47.476,44.742z"/>
	</g>
	<g id="_x38_" display="none">
		<path display="inline" fill="#007EFF" d="M27.975,44.826c-9.9-3.699-19-8.865-27.3-15.5c2.167-6.5,8.167-12.717,18-18.65
			c10.4-6.233,20.8-9.35,31.199-9.35c5.769,0,11.853,1,18.25,3c6.367,1.966,12.019,4.55,16.951,7.75
			c5.231,3.333,9.032,6.917,11.399,10.75c1.5,2.4,2.351,3.884,2.549,4.45c0.399,1.066,0.201,2.066-0.601,3
			c-11.032,7.867-21.666,13.301-31.899,16.301c-6.467,1.898-12.666,2.85-18.601,2.85C42.692,49.425,36.042,47.893,27.975,44.826z"/>
	</g>
	<g id="_x39_" display="none">
		<path display="inline" fill="#007EFF" d="M26.642,48.285c-9.633-4.434-18.267-10.75-25.9-18.951c2.167-6.5,8.167-12.717,18-18.65
			c10.4-6.233,20.8-9.35,31.2-9.35c5.766,0,11.85,1,18.25,3c6.367,1.967,12.018,4.55,16.949,7.75
			c5.234,3.333,9.033,6.917,11.4,10.75c1.5,2.4,2.35,3.883,2.551,4.45c0.398,1.066,0.199,2.066-0.602,3
			c-10.766,10.034-20.949,16.817-30.549,20.35c-6,2.199-12.5,3.3-19.5,3.3C41.975,53.934,34.708,52.05,26.642,48.285z"/>
	</g>
	<g id="_x31_0" display="none">
		<path display="inline" fill="#007EFF" d="M85.075,12.363c5.233,3.333,9.032,6.917,11.399,10.75c1.5,2.4,2.351,3.883,2.551,4.45
			c0.398,1.066,0.199,2.066-0.602,3c-10.5,12.268-20.232,20.434-29.199,24.5c-5.533,2.5-12.334,3.75-20.399,3.75
			c-7.7,0-15.6-2.232-23.7-6.701c-9.4-5.166-17.55-12.666-24.45-22.5c2.167-6.5,8.167-12.717,18-18.65
			c10.4-6.233,20.8-9.35,31.2-9.35c5.768,0,11.852,1,18.25,3C74.492,6.58,80.141,9.163,85.075,12.363z"/>
	</g>
</g>
</svg>
